<svg xmlns="http://www.w3.org/2000/svg" width="28.571" height="20" viewBox="0 0 28.571 20">
  <path id="Icon_awesome-user-friends" data-name="Icon awesome-user-friends" d="M8.571,12.25a5,5,0,1,0-5-5A5,5,0,0,0,8.571,12.25ZM12,13.679h-.371a6.9,6.9,0,0,1-6.116,0H5.143A5.144,5.144,0,0,0,0,18.821v1.286A2.143,2.143,0,0,0,2.143,22.25H15a2.143,2.143,0,0,0,2.143-2.143V18.821A5.144,5.144,0,0,0,12,13.679Zm9.429-1.429a4.286,4.286,0,1,0-4.286-4.286A4.287,4.287,0,0,0,21.429,12.25Zm2.143,1.429H23.4a5.63,5.63,0,0,1-3.946,0h-.17a4.958,4.958,0,0,0-2.487.688,6.533,6.533,0,0,1,1.772,4.455v1.714c0,.1-.022.192-.027.286h7.884a2.143,2.143,0,0,0,2.143-2.143,5,5,0,0,0-5-5Z" transform="translate(0 -2.25)" fill="#222129"/>
</svg>
