<svg xmlns="http://www.w3.org/2000/svg" width="12.914" height="12.914" viewBox="0 0 12.914 12.914">
  <g id="Trazado_166" data-name="Trazado 166" fill="#fff">
    <path d="M 6.457029819488525 12.41405963897705 C 3.172309875488281 12.41405963897705 0.4999998211860657 9.74174976348877 0.4999998211860657 6.457029819488525 C 0.4999998211860657 3.172309875488281 3.172309875488281 0.4999998211860657 6.457029819488525 0.4999998211860657 C 9.74174976348877 0.4999998211860657 12.41405963897705 3.172309875488281 12.41405963897705 6.457029819488525 C 12.41405963897705 9.74174976348877 9.74174976348877 12.41405963897705 6.457029819488525 12.41405963897705 Z" stroke="none"/>
    <path d="M 6.457029819488525 1 C 3.448009490966797 1 1 3.448009490966797 1 6.457029819488525 C 1 9.466050148010254 3.448009490966797 11.91405963897705 6.457029819488525 11.91405963897705 C 9.466050148010254 11.91405963897705 11.91405963897705 9.466050148010254 11.91405963897705 6.457029819488525 C 11.91405963897705 3.448009490966797 9.466050148010254 1 6.457029819488525 1 M 6.457029819488525 0 C 10.02314949035645 0 12.91405963897705 2.890910148620605 12.91405963897705 6.457029819488525 C 12.91405963897705 10.02314949035645 10.02314949035645 12.91405963897705 6.457029819488525 12.91405963897705 C 2.890910148620605 12.91405963897705 0 10.02314949035645 0 6.457029819488525 C 0 2.890910148620605 2.890910148620605 0 6.457029819488525 0 Z" stroke="none" fill="#02ade9"/>
  </g>
</svg>
